<svg xmlns="http://www.w3.org/2000/svg" viewBox="0 0 16 16"><defs><style>.cls-1{fill:#003463;}.cls-2{font-size:1.41px;}.cls-2,.cls-3,.cls-4{fill:#fff;}.cls-2,.cls-3{font-family:BingoRegular, Bingo;}.cls-3{font-size:0.54px;}</style></defs><g id="Calque_2" data-name="Calque 2"><g id="Calque_1-2" data-name="Calque 1"><rect class="cls-1" width="16" height="16" rx="8"/><text class="cls-2" transform="translate(4.47 11.66)">MUSLIM</text><text class="cls-3" transform="translate(6.75 12.49)">GUARD</text><path class="cls-4" d="M6.26,7.13V5.66L7.1,6.77l.84-1.11V7.13L7.79,7V6.17l-.69.91-.69-.91V7Z"/><path class="cls-4" d="M8.55,5.66H9.74v.23H8.55a.22.22,0,0,0-.13,0A.38.38,0,0,0,8.31,6a.59.59,0,0,0-.07.16,1.11,1.11,0,0,0,0,.19h0a1.12,1.12,0,0,0,0,.2.6.6,0,0,0,.08.16.27.27,0,0,0,.1.11.24.24,0,0,0,.13,0h1V6.51H9.31l-.1-.23h.53v.85H8.55a.41.41,0,0,1-.18,0,.61.61,0,0,1-.16-.16,1.23,1.23,0,0,1-.11-.23,1.36,1.36,0,0,1,0-.3,1.35,1.35,0,0,1,0-.29,1.23,1.23,0,0,1,.11-.23.45.45,0,0,1,.16-.15A.32.32,0,0,1,8.55,5.66Z"/><path class="cls-4" d="M8.59,9.79A7.17,7.17,0,0,0,11,4.48a5.1,5.1,0,0,1-1.45-.39,5,5,0,0,1-1.28-.76,6.28,6.28,0,0,0,3.08.88,6.74,6.74,0,0,1-.55,2.85A6.64,6.64,0,0,1,8.59,9.79Z"/><path class="cls-4" d="M4.64,4.21a6.22,6.22,0,0,0,3.07-.88,4.51,4.51,0,0,1-1.26.76A5.17,5.17,0,0,1,5,4.48,7.17,7.17,0,0,0,7.41,9.79,6.69,6.69,0,0,1,5.33,7.36,6.78,6.78,0,0,1,4.64,4.21Z"/></g></g></svg>